# xmcd CD database file
#
# Track frame offsets:
#	150
#	36156
#	50604
#	104624
#	126352
#	140471
#	171035
#	209443
#	253312
#
# Disc length: 3655 seconds
#
# Revision: 0
# Processed by: cddbd v1.5.1PL2 Copyright (c) Steve Scherf et al.
# Submitted via: CDex 1.51
#
DISCID=8b0e4509
DTITLE=Charles Mingus - Introducing...
DYEAR=2006
DGENRE=Jazz
TTITLE0=Moanin'
TTITLE1=Wednesday Night Prayer Meeting
TTITLE2=Hiatian Fight Song
TTITLE3=Invisible Lady
TTITLE4=Profile of Jackie
TTITLE5=My Jelly Roll Soul
TTITLE6=Reincarnation Of A Love Bird
TTITLE7=Passions Of A Woman Loved
TTITLE8=Eat That Chicken
EXTD=YEAR: 2006
EXTT0=
EXTT1=
EXTT2=
EXTT3=
EXTT4=
EXTT5=
EXTT6=
EXTT7=
EXTT8=
PLAYORDER=
